<?xml version="1.0" encoding="UTF-8"?>
<svg width="21px" height="21px" viewBox="0 0 21 21" version="1.1" xmlns="http://www.w3.org/2000/svg" xmlns:xlink="http://www.w3.org/1999/xlink">
    <!-- Generator: Sketch 52.4 (67378) - http://www.bohemiancoding.com/sketch -->
    <title>Logo Symbol</title>
    <desc>Created with Sketch.</desc>
    <g id="Page-1" stroke="none" stroke-width="1" fill="none" fill-rule="evenodd">
        <g id="Logo-Symbol" fill="#3EA8F8">
            <g id="Icon-2">
                <path d="M20.98396,8.2173913 L21,8.2173913 L21,10.0434783 L20.990254,10.0434783 C20.9967293,10.1948442 21,10.3470401 21,10.5 C21,16.2989899 16.2989899,21 10.5,21 C4.70101013,21 0,16.2989899 0,10.5 C0,4.85396999 4.45628389,0.24876086 10.0434783,0.0097459959 L10.0434783,0 L12.7826087,0 L12.7826087,0.0160400305 C12.8799816,0.0054221727 12.9991488,-2.38041128e-17 13.1515078,-5.17920154e-17 L19.7180574,5.52622681e-16 C20.1638168,-3.21089692e-16 20.3254599,0.0464128056 20.4884229,0.133566352 C20.6513858,0.220719898 20.7792801,0.348614185 20.8664336,0.511577148 C20.9535872,0.674540111 21,0.83618323 21,1.2819426 L21,7.84849218 C21,8.00085123 20.9945778,8.12001841 20.98396,8.2173913 Z" id="Combined-Shape"></path>
            </g>
        </g>
    </g>
</svg>