<?xml version="1.0" encoding="UTF-8"?>
<svg width="110px" height="22px" viewBox="0 0 110 22" version="1.1" xmlns="http://www.w3.org/2000/svg" xmlns:xlink="http://www.w3.org/1999/xlink">
    <!-- Generator: Sketch 52.4 (67378) - http://www.bohemiancoding.com/sketch -->
    <title>Logo Dark</title>
    <desc>Created with Sketch.</desc>
    <g id="Page-1" stroke="none" stroke-width="1" fill="none" fill-rule="evenodd">
        <g id="Logo-Dark" transform="translate(-1.000000, -1.000000)">
            <g id="Ripple-Dark" transform="translate(32.000000, 1.000000)" fill="#f4f4f4">
                <path d="M0.16796875,1.73632812 L7.93164063,1.73632812 C9.10352148,1.73632812 10.1191363,1.85839722 10.9785156,2.10253906 C11.8378949,2.34668091 12.5507784,2.69986748 13.1171875,3.16210938 C13.6835966,3.62435127 14.1051418,4.18749668 14.3818359,4.8515625 C14.65853,5.51562832 14.796875,6.26757393 14.796875,7.10742188 C14.796875,7.67383096 14.7285163,8.21256255 14.5917969,8.72363281 C14.4550774,9.23470308 14.2451186,9.70507598 13.9619141,10.1347656 C13.6787095,10.5644553 13.3222678,10.9469384 12.8925781,11.2822266 C12.4628885,11.6175147 11.9583362,11.8958322 11.3789062,12.1171875 L14.6992188,17 L10.9101562,17 L8.0390625,12.6640625 L7.95117188,12.6640625 L3.26367188,12.6542969 L3.26367188,17 L0.16796875,17 L0.16796875,1.73632812 Z M8.00976562,9.97851562 C8.59570605,9.97851562 9.10839624,9.91015693 9.54785156,9.7734375 C9.98730688,9.63671807 10.3551417,9.4446627 10.6513672,9.19726562 C10.9475926,8.94986855 11.1689446,8.64876479 11.3154297,8.29394531 C11.4619148,7.93912583 11.5351562,7.54362197 11.5351562,7.10742188 C11.5351562,6.25455303 11.2421904,5.59537993 10.65625,5.12988281 C10.0703096,4.66438569 9.18815693,4.43164062 8.00976562,4.43164062 L3.26367188,4.43164062 L3.26367188,9.97851562 L8.00976562,9.97851562 Z M19.6210938,3.90429688 C19.334634,3.90429688 19.0758475,3.86360718 18.8447266,3.78222656 C18.6136056,3.70084595 18.4166675,3.59016997 18.2539062,3.45019531 C18.091145,3.31022065 17.9658208,3.14746187 17.8779297,2.96191406 C17.7900386,2.77636626 17.7460938,2.57942812 17.7460938,2.37109375 C17.7460938,2.15624893 17.7900386,1.95605562 17.8779297,1.77050781 C17.9658208,1.58496001 18.091145,1.42382881 18.2539062,1.28710938 C18.4166675,1.15038994 18.6136056,1.04134155 18.8447266,0.959960938 C19.0758475,0.878580322 19.334634,0.837890625 19.6210938,0.837890625 C19.914064,0.837890625 20.1761056,0.878580322 20.4072266,0.959960938 C20.6383475,1.04134155 20.8352856,1.15038994 20.9980469,1.28710938 C21.1608081,1.42382881 21.2861324,1.58496001 21.3740234,1.77050781 C21.4619145,1.95605562 21.5058594,2.15624893 21.5058594,2.37109375 C21.5058594,2.57942812 21.4619145,2.77636626 21.3740234,2.96191406 C21.2861324,3.14746187 21.1608081,3.31022065 20.9980469,3.45019531 C20.8352856,3.59016997 20.6383475,3.70084595 20.4072266,3.78222656 C20.1761056,3.86360718 19.914064,3.90429688 19.6210938,3.90429688 Z M18.1757812,5.4765625 L21.0664062,5.4765625 L21.0664062,17 L18.1757812,17 L18.1757812,5.4765625 Z M27.5800781,21.7070312 L24.6894531,21.7070312 L24.6894531,5.4765625 L27.5800781,5.4765625 L27.5800781,6.56054688 C27.8339856,6.38476475 28.1334618,6.21875078 28.4785156,6.0625 C28.8235694,5.90624922 29.1946595,5.76953184 29.5917969,5.65234375 C29.9889343,5.53515566 30.3990864,5.44238315 30.8222656,5.37402344 C31.2454448,5.30566372 31.6686177,5.27148438 32.0917969,5.27148438 C33.0683643,5.27148438 33.9651652,5.41471211 34.7822266,5.70117188 C35.5992879,5.98763164 36.3007783,6.39127344 36.8867188,6.91210938 C37.4726592,7.43294531 37.9300114,8.05631147 38.2587891,8.78222656 C38.5875667,9.50814165 38.7519531,10.3105425 38.7519531,11.1894531 C38.7519531,12.1074265 38.5794288,12.9358687 38.234375,13.6748047 C37.8893212,14.4137407 37.4124379,15.0452448 36.8037109,15.5693359 C36.1949839,16.0934271 35.4723349,16.4970689 34.6357422,16.7802734 C33.7991495,17.063478 32.892583,17.2050781 31.9160156,17.2050781 C31.4993469,17.2050781 31.0875671,17.1790367 30.6806641,17.1269531 C30.273761,17.0748695 29.8831399,17.0032557 29.5087891,16.9121094 C29.1344382,16.8209631 28.7828792,16.7119147 28.4541016,16.5849609 C28.1253239,16.4580072 27.8339856,16.3196622 27.5800781,16.1699219 L27.5800781,21.7070312 Z M27.5800781,13.3769531 C27.8730483,13.6113293 28.18229,13.809895 28.5078125,13.9726562 C28.833335,14.1354175 29.1653629,14.2688797 29.5039062,14.3730469 C29.8424496,14.4772141 30.1842431,14.5537107 30.5292969,14.6025391 C30.8743507,14.6513674 31.2096338,14.6757812 31.5351562,14.6757812 C32.1992221,14.6757812 32.7900365,14.5862639 33.3076172,14.4072266 C33.8251979,14.2281892 34.2613915,13.9824234 34.6162109,13.6699219 C34.9710304,13.3574203 35.2428376,12.9895854 35.4316406,12.5664062 C35.6204437,12.1432271 35.7148438,11.6842473 35.7148438,11.1894531 C35.7148438,10.7272112 35.6220712,10.2910177 35.4365234,9.88085938 C35.2509756,9.47070107 34.9840512,9.11100415 34.6357422,8.80175781 C34.2874332,8.49251147 33.8675155,8.24837329 33.3759766,8.06933594 C32.8844376,7.89029858 32.3326854,7.80078125 31.7207031,7.80078125 C31.3300762,7.80078125 30.9394551,7.83821577 30.5488281,7.91308594 C30.1582012,7.9879561 29.7822284,8.09374932 29.4208984,8.23046875 C29.0595685,8.36718818 28.7210302,8.53320215 28.4052734,8.72851562 C28.0895167,8.9238291 27.8144543,9.14192588 27.5800781,9.3828125 L27.5800781,13.3769531 Z M44.2890625,21.7070312 L41.3984375,21.7070312 L41.3984375,5.4765625 L44.2890625,5.4765625 L44.2890625,6.56054688 C44.54297,6.38476475 44.8424462,6.21875078 45.1875,6.0625 C45.5325538,5.90624922 45.9036438,5.76953184 46.3007812,5.65234375 C46.6979187,5.53515566 47.1080708,5.44238315 47.53125,5.37402344 C47.9544292,5.30566372 48.3776021,5.27148438 48.8007812,5.27148438 C49.7773486,5.27148438 50.6741496,5.41471211 51.4912109,5.70117188 C52.3082723,5.98763164 53.0097627,6.39127344 53.5957031,6.91210938 C54.1816436,7.43294531 54.6389958,8.05631147 54.9677734,8.78222656 C55.2965511,9.50814165 55.4609375,10.3105425 55.4609375,11.1894531 C55.4609375,12.1074265 55.2884132,12.9358687 54.9433594,13.6748047 C54.5983056,14.4137407 54.1214223,15.0452448 53.5126953,15.5693359 C52.9039683,16.0934271 52.1813193,16.4970689 51.3447266,16.7802734 C50.5081338,17.063478 49.6015674,17.2050781 48.625,17.2050781 C48.2083313,17.2050781 47.7965515,17.1790367 47.3896484,17.1269531 C46.9827454,17.0748695 46.5921243,17.0032557 46.2177734,16.9121094 C45.8434226,16.8209631 45.4918636,16.7119147 45.1630859,16.5849609 C44.8343083,16.4580072 44.54297,16.3196622 44.2890625,16.1699219 L44.2890625,21.7070312 Z M44.2890625,13.3769531 C44.5820327,13.6113293 44.8912744,13.809895 45.2167969,13.9726562 C45.5423193,14.1354175 45.8743473,14.2688797 46.2128906,14.3730469 C46.551434,14.4772141 46.8932274,14.5537107 47.2382812,14.6025391 C47.5833351,14.6513674 47.9186182,14.6757812 48.2441406,14.6757812 C48.9082064,14.6757812 49.4990208,14.5862639 50.0166016,14.4072266 C50.5341823,14.2281892 50.9703758,13.9824234 51.3251953,13.6699219 C51.6800148,13.3574203 51.951822,12.9895854 52.140625,12.5664062 C52.329428,12.1432271 52.4238281,11.6842473 52.4238281,11.1894531 C52.4238281,10.7272112 52.3310556,10.2910177 52.1455078,9.88085938 C51.95996,9.47070107 51.6930356,9.11100415 51.3447266,8.80175781 C50.9964175,8.49251147 50.5764999,8.24837329 50.0849609,8.06933594 C49.593422,7.89029858 49.0416697,7.80078125 48.4296875,7.80078125 C48.0390605,7.80078125 47.6484395,7.83821577 47.2578125,7.91308594 C46.8671855,7.9879561 46.4912127,8.09374932 46.1298828,8.23046875 C45.7685529,8.36718818 45.4300146,8.53320215 45.1142578,8.72851562 C44.798501,8.9238291 44.5234387,9.14192588 44.2890625,9.3828125 L44.2890625,13.3769531 Z M58.2636719,0.798828125 L61.1542969,0.798828125 L61.1542969,17 L58.2636719,17 L58.2636719,0.798828125 Z M64.3085938,11.1992188 C64.3085938,10.4179648 64.4680974,9.670902 64.7871094,8.95800781 C65.1061214,8.24511362 65.5651012,7.61523711 66.1640625,7.06835938 C66.7630238,6.52148164 67.497066,6.08528809 68.3662109,5.75976562 C69.2353559,5.43424316 70.2233018,5.27148438 71.3300781,5.27148438 C72.430344,5.27148438 73.4215451,5.43587075 74.3037109,5.76464844 C75.1858768,6.09342612 75.9345672,6.54426797 76.5498047,7.1171875 C77.1650421,7.69010703 77.6370426,8.36392842 77.9658203,9.13867188 C78.294598,9.91341533 78.4589844,10.7434852 78.4589844,11.6289062 C78.4589844,11.7395839 78.4573568,11.8583978 78.4541016,11.9853516 C78.4508463,12.1123053 78.4427084,12.2278641 78.4296875,12.3320312 L67.53125,12.3320312 C67.6549485,12.6770851 67.8551418,12.9928371 68.1318359,13.2792969 C68.40853,13.5657566 68.7552063,13.81315 69.171875,14.0214844 C69.5885437,14.2298187 70.0703098,14.39095 70.6171875,14.5048828 C71.1640652,14.6188157 71.7695279,14.6757812 72.4335938,14.6757812 C73.0976596,14.6757812 73.7584603,14.605795 74.4160156,14.4658203 C75.073571,14.3258457 75.7018199,14.1484386 76.3007812,13.9335938 L77.2773438,16.140625 C76.8997377,16.3164071 76.5172545,16.471028 76.1298828,16.6044922 C75.7425111,16.7379564 75.3388693,16.8486324 74.9189453,16.9365234 C74.4990213,17.0244145 74.0595726,17.0911456 73.6005859,17.1367188 C73.1415993,17.1822919 72.6582057,17.2050781 72.1503906,17.2050781 C70.8548112,17.2050781 69.7187549,17.0488297 68.7421875,16.7363281 C67.7656201,16.4238266 66.948571,15.9973985 66.2910156,15.4570312 C65.6334603,14.916664 65.1386735,14.2819047 64.8066406,13.5527344 C64.4746077,12.8235641 64.3085938,12.0390667 64.3085938,11.1992188 Z M75.3925781,10.0761719 C75.2884109,9.75715986 75.1272797,9.45931128 74.9091797,9.18261719 C74.6910796,8.9059231 74.4192725,8.66504009 74.09375,8.45996094 C73.7682275,8.25488179 73.3906271,8.09375059 72.9609375,7.9765625 C72.5312479,7.85937441 72.0592474,7.80078125 71.5449219,7.80078125 C70.9980441,7.80078125 70.5000022,7.86262959 70.0507812,7.98632812 C69.6015603,8.11002666 69.207684,8.27604063 68.8691406,8.484375 C68.5305973,8.69270937 68.2490246,8.93359238 68.0244141,9.20703125 C67.7998036,9.48047012 67.6354172,9.77018076 67.53125,10.0761719 L75.3925781,10.0761719 Z" id="Ripple"></path>
            </g>
            <g id="Logo-Symbol" transform="translate(11.500000, 11.500000) rotate(3.000000) translate(-11.500000, -11.500000) translate(1.000000, 1.000000)" fill="#3EA8F8" stroke-width="1">
                <g id="Icon-2">
                    <path d="M20.98396,8.2173913 L21,8.2173913 L21,10.0434783 L20.990254,10.0434783 C20.9967293,10.1948442 21,10.3470401 21,10.5 C21,16.2989899 16.2989899,21 10.5,21 C4.70101013,21 0,16.2989899 0,10.5 C0,4.85396999 4.45628389,0.24876086 10.0434783,0.0097459959 L10.0434783,0 L12.7826087,0 L12.7826087,0.0160400305 C12.8799816,0.0054221727 12.9991488,-2.38041128e-17 13.1515078,-5.17920154e-17 L19.7180574,5.52622681e-16 C20.1638168,-3.21089692e-16 20.3254599,0.0464128056 20.4884229,0.133566352 C20.6513858,0.220719898 20.7792801,0.348614185 20.8664336,0.511577148 C20.9535872,0.674540111 21,0.83618323 21,1.2819426 L21,7.84849218 C21,8.00085123 20.9945778,8.12001841 20.98396,8.2173913 Z" id="Combined-Shape"></path>
                </g>
            </g>
        </g>
    </g>
</svg>